<?xml version="1.0" encoding="UTF-8"?>
<!DOCTYPE svg PUBLIC "-//W3C//DTD SVG 1.1//EN" "http://www.w3.org/Graphics/SVG/1.1/DTD/svg11.dtd">
<!-- Creator: CorelDRAW 2021 (64-Bit) -->
<svg xmlns="http://www.w3.org/2000/svg" xml:space="preserve" width="6.7733mm" height="10.16mm" version="1.1" style="shape-rendering:geometricPrecision; text-rendering:geometricPrecision; image-rendering:optimizeQuality; fill-rule:evenodd; clip-rule:evenodd"
viewBox="0 0 25.99 38.98"
 xmlns:xlink="http://www.w3.org/1999/xlink"
 xmlns:xodm="http://www.corel.com/coreldraw/odm/2003">
 <defs>
  <style type="text/css">
   <![CDATA[
    .fil0 {fill:#EF7F1A}
   ]]>
  </style>
 </defs>
 <g id="Слой_x0020_1">
  <metadata id="CorelCorpID_0Corel-Layer"/>
  <path class="fil0" d="M18.64 2.51c0.08,0.48 0.46,0.89 0.62,1.35 -0.41,-0.22 -0.84,-0.65 -1.27,-0.83 -2.35,1.37 -4.53,4.31 -5.86,6.66 -1.04,1.84 -0.61,1.22 0.16,2.67l-1.21 -0.53c-0.25,0.72 -0.64,1.46 -0.91,2.24 -0.7,2.02 -1.63,6.04 -1.49,8.06 2.43,-5.73 5.27,-10.44 9.14,-15.13l-1.18 1.87c-3.25,4.63 -7.32,11.74 -9.08,17.19 -0.28,0.88 0.17,0.67 -2.57,0.67 -0.57,0 -1.6,-0.19 -1.99,0.21 -0.2,0.41 -0.13,1.24 0.01,1.66 0.33,0.12 0.46,0.12 0.88,0.12l-0.02 0.91c-2.5,-0 -2.42,0.09 -2.85,2.34 -0.28,1.47 -0.56,2.92 -0.83,4.39 -0.42,2.23 -0.29,2.63 2.08,2.63l10.45 0c2.41,0 2.34,-0.58 1.93,-2.73 -0.28,-1.46 -0.54,-2.88 -0.82,-4.32 -0.13,-0.67 -0.14,-1.58 -0.64,-1.98 -0.67,-0.54 -1.34,-0.23 -2.24,-0.37l0 -0.85c0.69,-0.08 0.98,0.04 1,-0.76 0.05,-2.04 -0.56,-1.01 -4.15,-1.26 0.25,-0.88 1.68,-3.49 2.23,-4.51 0.22,-0.41 0.15,-0.36 0.53,-0.57 2.03,-1.14 4.63,-2.77 5.72,-4.52l-0.09 -0.08c-0.08,-0.06 -0.02,-0.03 -0.16,-0.1 -0.61,-0.29 -1.99,-0.29 -2.61,-0.37 1.46,-0.3 2.11,-0.12 3.57,-0.11 0.31,-0.4 1.43,-1.49 2.1,-2.37 0.45,-0.59 1.51,-2 1.72,-2.79 -0.53,-0.17 -1.07,-0.55 -1.79,-0.77l-0.61 -0.22c-0.02,-0.01 -0.05,-0.03 -0.07,-0.04 1.25,-0.02 1.95,0.28 3.05,0.47 0.24,-0.87 1.17,-2.25 1.53,-3.07 -0.49,-0.2 -1.89,-0.76 -2.24,-1.07 0.69,0.05 1.97,0.4 2.55,0.33 0.48,-0.76 3.83,-5.47 2.4,-6.64 -0.77,-0.63 -3.15,0.01 -3.98,0.36 -1.8,0.76 -1.99,1.23 -3.02,1.89zm-9.32 25.88l0.02 0.32 1.45 -0 0.03 -0.32 -0.01 -1.35 -1.49 0 0 1.35zm2.2 10.09l1.45 -0c-0.01,-0.92 -0.83,-5.68 -1.07,-7.24 -0.23,-1.48 0.03,-1.14 -1.62,-1.14l1.25 8.38z"/>
 </g>
</svg>
