<?xml version="1.0" encoding="UTF-8"?>
<!DOCTYPE svg PUBLIC "-//W3C//DTD SVG 1.1//EN" "http://www.w3.org/Graphics/SVG/1.1/DTD/svg11.dtd">
<!-- Creator: CorelDRAW X6 -->
<svg xmlns="http://www.w3.org/2000/svg" xml:space="preserve" width="778px" height="778px" version="1.1" style="shape-rendering:geometricPrecision; text-rendering:geometricPrecision; image-rendering:optimizeQuality; fill-rule:evenodd; clip-rule:evenodd"
viewBox="0 0 341 341"
 xmlns:xlink="http://www.w3.org/1999/xlink">
 <defs>
  <style type="text/css">
   <![CDATA[
    .fil2 {fill:black}
    .fil0 {fill:#FFEC00}
    .fil1 {fill:#FFEC00;fill-rule:nonzero}
   ]]>
  </style>
 </defs>
 <g id="Слой_x0020_1">
  <metadata id="CorelCorpID_0Corel-Layer"/>
  <path class="fil0" d="M171 66c58,0 104,47 104,104 0,58 -47,104 -104,104 -58,0 -104,-47 -104,-104 0,-58 47,-104 104,-104z"/>
  <path class="fil1" d="M177 48c0,3 -3,6 -6,6 -3,0 -6,-3 -6,-6l0 -42c0,-3 3,-6 6,-6 3,0 6,3 6,6l0 42z"/>
  <path class="fil1" d="M262 89c-2,2 -6,2 -9,0 -2,-2 -2,-6 0,-9l30 -30c2,-2 6,-2 9,0 2,2 2,6 0,9l-30 30z"/>
  <path class="fil1" d="M293 177c-3,0 -6,-3 -6,-6 0,-3 3,-6 6,-6l42 0c3,0 6,3 6,6 0,3 -3,6 -6,6l-42 0z"/>
  <path class="fil1" d="M253 262c-2,-2 -2,-6 0,-9 2,-2 6,-2 9,0l30 30c2,2 2,6 0,9 -2,2 -6,2 -9,0l-30 -30z"/>
  <path class="fil1" d="M165 293c0,-3 3,-6 6,-6 3,0 6,3 6,6l0 42c0,3 -3,6 -6,6 -3,0 -6,-3 -6,-6l0 -42z"/>
  <path class="fil1" d="M80 253c2,-2 6,-2 9,0 2,2 2,6 0,9l-30 30c-2,2 -6,2 -9,0 -2,-2 -2,-6 0,-9l30 -30z"/>
  <path class="fil1" d="M48 165c3,0 6,3 6,6 0,3 -3,6 -6,6l-42 0c-3,0 -6,-3 -6,-6 0,-3 3,-6 6,-6l42 0z"/>
  <path class="fil1" d="M89 80c2,2 2,6 0,9 -2,2 -6,2 -9,0l-30 -30c-2,-2 -2,-6 0,-9 2,-2 6,-2 9,0l30 30z"/>
  <path class="fil2" d="M247 242c-19,20 -46,33 -76,33 -58,0 -104,-47 -104,-104 0,-56 44,-101 99,-104 -17,19 -28,44 -28,71 0,58 47,104 104,104 2,0 4,0 6,0z"/>
 </g>
</svg>
